<svg width="325" height="307" viewBox="0 0 201 190" fill="none" xmlns="http://www.w3.org/2000/svg">
<g clip-path="url(#clip0_757:5512)">
<path d="M189.809 71.51C188.632 53.3408 183.258 35.692 174.109 19.95C165.091 22.8788 155.671 24.3803 146.189 24.4C130.629 24.4 113.359 20 100.459 12.52C87.5695 20 70.2995 24.4 54.7395 24.4C45.2545 24.3813 35.8307 22.8799 26.8095 19.95C17.6565 35.6901 12.2822 53.3399 11.1095 71.51C9.48948 97.21 17.4495 117.76 35.4395 134.35C54.8453 151.983 76.7481 166.655 100.439 177.89C124.133 166.658 146.036 151.986 165.439 134.35C183.439 117.76 191.389 97.21 189.769 71.51" fill="white"/>
<path d="M197.18 71.0397C195.99 52.0397 190.76 32.9197 177.55 11.0397C163.44 15.9097 154.38 16.9697 146.14 16.9697C129.981 16.9932 114.139 12.4897 100.41 3.96973C86.684 12.4904 70.8451 16.994 54.6897 16.9697C46.4497 16.9697 37.3897 15.9097 23.2697 11.0397C10.0697 32.9297 4.83967 52.0397 3.63967 71.0397C1.89967 98.7297 10.8797 121.87 30.3597 139.82C61.6197 168.64 97.7697 184.91 100.41 186.02C103.06 184.91 139.2 168.64 170.47 139.82C189.94 121.82 198.93 98.7297 197.18 71.0397V71.0397ZM165.43 134.35C146.024 151.983 124.121 166.655 100.43 177.89C76.7383 166.654 54.8355 151.983 35.4297 134.35C17.4297 117.76 9.47966 97.2097 11.0997 71.5097C12.2754 53.3388 17.6532 35.6889 26.8097 19.9497C35.8277 22.8785 45.248 24.38 54.7297 24.3997C70.2897 24.3997 87.5597 19.9997 100.45 12.5197C113.35 19.9997 130.62 24.3997 146.18 24.3997C155.661 24.38 165.082 22.8785 174.1 19.9497C183.252 35.6908 188.629 53.3397 189.81 71.5097C191.43 97.2097 183.47 117.76 165.48 134.35" fill="black"/>
<path d="M200.61 70.83C199.08 48.0338 191.696 26.0178 179.17 6.90997C161.92 12.77 154.03 13.53 146.17 13.53C132.41 13.53 116.8 10.18 100.44 0C84.09 10.18 68.44 13.53 54.72 13.53C46.83 13.53 38.94 12.77 21.72 6.90997C9.19417 26.0178 1.80957 48.0338 0.279972 70.83C-1.54003 99.6 7.81997 123.66 28.09 142.34C49.5465 161.894 73.9788 177.908 100.47 189.78C126.948 177.906 151.367 161.893 172.81 142.34C193.08 123.66 202.44 99.6 200.62 70.83H200.61ZM170.48 139.83C139.22 168.65 103.07 184.92 100.42 186.03C97.78 184.92 61.63 168.65 30.37 139.83C10.9 121.83 1.90997 98.74 3.64997 71.05C4.84997 52.05 10.08 32.93 23.28 11.05C37.4 15.92 46.46 16.98 54.7 16.98C70.8554 17.0043 86.6942 12.5006 100.42 3.97998C114.15 12.5 129.992 17.0035 146.15 16.98C154.39 16.98 163.45 15.92 177.57 11.05C190.77 32.94 196 52.05 197.19 71.05C198.94 98.74 189.95 121.88 170.48 139.83" fill="#C4A76C"/>
<path d="M46.4902 81.55V73.41C49.9502 76.49 55.4902 78.86 59.9402 78.86C64.1102 78.86 66.4803 76.74 66.4803 73.34C66.4803 63.47 46.8002 66.17 46.8002 52.64C46.8002 44.64 53.8003 40.21 62.7003 40.21C66.0566 40.1292 69.3873 40.8132 72.4402 42.21V50.21C69.9402 48.21 65.4403 45.98 61.2903 45.98C57.5103 45.98 54.8203 47.77 54.8203 51.11C54.8203 60.11 74.6202 57.3201 74.6202 71.7501C74.6202 79.8901 68.2802 84.6901 59.0502 84.6901C53.0502 84.6901 48.2102 82.6901 46.4902 81.4901" fill="black"/>
<path d="M92.5697 46.6799V59.9498H106.48V66.7399C103.411 65.9132 100.236 65.5458 97.0597 65.6498H92.5697V76.0999C92.4442 78.7974 92.748 81.4977 93.4697 84.0999H83.7197C84.4414 81.4977 84.7452 78.7974 84.6197 76.0999V48.8599C84.7476 46.1623 84.4438 43.4616 83.7197 40.8599H111.09V48.2999C107.843 47.0536 104.375 46.4852 100.9 46.6299L92.5697 46.6799Z" fill="black"/>
<path d="M127.81 68.0198V76.0999C127.686 78.804 128.024 81.5096 128.81 84.0999H118.91C119.632 81.4977 119.936 78.7974 119.81 76.0999V48.8599C119.938 46.1623 119.634 43.4616 118.91 40.8599H127.81V60.1998L141.27 45.9099C143.51 43.4799 144.27 42.1299 144.41 40.9099H155.24C152.266 43.3843 149.463 46.0571 146.85 48.9099L136.09 60.0999L149.42 76.5098C151.596 79.2052 153.952 81.751 156.47 84.1299H145.47L130.47 65.2198L127.81 68.0198Z" fill="black"/>
<path d="M53.2197 96.54V143.1C60.6372 148.872 68.351 154.253 76.3297 159.22V96.54H53.2197Z" fill="black"/>
<path d="M88.8604 96.54V166.54C94.1104 169.44 98.1604 171.43 100.41 172.54C102.67 171.46 106.72 169.47 111.97 166.54V96.54H88.8604Z" fill="black"/>
<path d="M124.5 96.54V159.23C132.479 154.259 140.193 148.875 147.61 143.1V96.54H124.5Z" fill="black"/>
<path d="M17.8896 96.54C21.1396 109.64 28.0296 120.97 38.6796 130.79L40.6796 132.61V96.54H17.8896Z" fill="black"/>
<path d="M160.15 132.61L162.15 130.79C172.8 120.97 179.69 109.64 182.94 96.54H160.15V132.61Z" fill="black"/>
</g>
<defs>
<clipPath id="clip0_757:5512">
<rect width="200.785" height="189.78" fill="white" transform="translate(0.0576172)"/>
</clipPath>
</defs>
</svg>
